<svg xmlns="http://www.w3.org/2000/svg" width="336.4" height="150.2" viewBox="0 0 336.4 150.2">
  <path id="process__number-2" d="M95.6,4.6C149.4,4.6,183-22.8,183-70s-33.6-74.6-87.4-74.6C42-144.6,8.4-117.2,8.4-70S42,4.6,95.6,4.6Zm.2-33.2c-28.8,0-46-14.6-46-41.4s17.2-41.4,46-41.4c28.6,0,45.8,14.6,45.8,41.4S124.4-28.6,95.8-28.6ZM195.6-113l22.2,21.4c14.8-14.6,32.4-22.6,51.6-22.6,15.4,0,30.4,4.8,30.4,14.2s-16,13.8-36.2,20.2c-41.6,12.4-66.4,35.2-70,62.2V0H343.8V-30.8H241.6C246.2-38,265-46.4,288-53.6c30.8-9.4,53-23.2,53-47.2,0-30.2-36-43.4-69.8-43.4C238-144.2,210-130.8,195.6-113Z" transform="translate(-7.9 145.1)" fill="none" stroke="#f23333" stroke-width="1"/>
</svg>
