<svg xmlns="http://www.w3.org/2000/svg" width="338" height="150.2" viewBox="0 0 338 150.2">
  <path id="process__number-3" d="M95.6,4.6C149.4,4.6,183-22.8,183-70s-33.6-74.6-87.4-74.6C42-144.6,8.4-117.2,8.4-70S42,4.6,95.6,4.6Zm.2-33.2c-28.8,0-46-14.6-46-41.4s17.2-41.4,46-41.4c28.6,0,45.8,14.6,45.8,41.4S124.4-28.6,95.8-28.6Zm123-17.6L191-28C207-8.4,234.8,4.2,268.8,4.2c42.8,0,76.6-15.2,76.6-43.2,0-20.6-18.6-30.4-38.4-33.6,19.8-2.4,33-16,33-32.4,0-27.2-35-39.2-72.2-39.2-32.8,0-59.4,12.2-74.4,31.2l26.4,18.8c10.4-12.2,25.8-19.8,46.6-19.8,15.2,0,32,3.2,32,14.2,0,10.6-16,14-32.6,14H243.6v27.2h22.2c19.6,0,36.6,2.2,36.6,15.4,0,13-18,17.2-35.2,17.2C246.2-26,229.8-33.4,218.8-46.2Z" transform="translate(-7.9 145.1)" fill="none" stroke="#f23333" stroke-width="1"/>
</svg>
