<svg xmlns="http://www.w3.org/2000/svg" width="266.4" height="150.2" viewBox="0 0 266.4 150.2">
  <path id="process__number-1" d="M95.6,4.6C149.4,4.6,183-22.8,183-70s-33.6-74.6-87.4-74.6C42-144.6,8.4-117.2,8.4-70S42,4.6,95.6,4.6Zm.2-33.2c-28.8,0-46-14.6-46-41.4s17.2-41.4,46-41.4c28.6,0,45.8,14.6,45.8,41.4S124.4-28.6,95.8-28.6ZM233,0h40.8V-140H243c-13.2,11.6-33.4,21.6-51.8,24.2v32.4c15.4-2.6,30.2-6.8,41.8-14.4Z" transform="translate(-7.9 145.1)" fill="none" stroke="#f23333" stroke-width="1"/>
</svg>
