<svg xmlns="http://www.w3.org/2000/svg" width="352" height="150.2" viewBox="0 0 352 150.2">
  <path id="process__number-4" d="M95.6,4.6C149.4,4.6,183-22.8,183-70s-33.6-74.6-87.4-74.6C42-144.6,8.4-117.2,8.4-70S42,4.6,95.6,4.6Zm.2-33.2c-28.8,0-46-14.6-46-41.4s17.2-41.4,46-41.4c28.6,0,45.8,14.6,45.8,41.4S124.4-28.6,95.8-28.6ZM359.4-56.4h-27V-140H296L189.6-50v22.8H292.8V0h39.6V-27.2h27Zm-119.8,0L293-101.8v45.4Z" transform="translate(-7.9 145.1)" fill="none" stroke="#f23333" stroke-width="1"/>
</svg>
